# xmcd
#
# Track frame offsets: 
#        150
#        22782
#        51875
#        76295
#        97769
#        115686
#        145410
#        168997
#        186504
#        213387
#        232456
#        259005
#        279179
#        299037
#        322915
#
# Disc length: 4602 seconds
#
# Revision: 2
# Processed by: cddbd v1.5.2PL0 Copyright (c) Steve Scherf et al.
# Submitted via: ExactAudioCopy v0.95b3
#
DISCID=d511f80f
DTITLE=Various Artist - Jazz For Summer [CD 2)
DYEAR=2009
DGENRE=Jazz
TTITLE0=Brenda Boykin - Wonderful
TTITLE1=Sumo feat. Rigas - Tribute
TTITLE2=The Cool Balance feat. Kevin Yost - Do You Like Jazz?
TTITLE3=Dimitri From Paris Presents Da Mothaphunkin  Phrog - Dim's Jaa
TTITLE3=zz (Latin's In The House)
TTITLE4=Madrid De Los Austrias - Un Mensaje
TTITLE5=But Rich Rhythms - The Bahama Soul Club
TTITLE6=Samp Brothers - Jazz Di Mezzaluna
TTITLE7=Tape Five - Club De Cigale
TTITLE8=S-Tone Inc. - Beira Do Mar
TTITLE9=The Bahama Soul Club - Kind Of Cool feat. Bella Wagner
TTITLE10=Povo - Good and Bad
TTITLE11=Jojo Effect - Why
TTITLE12=Club Des Belugas - She Said No
TTITLE13=Panaphonic - Deep Jazz Break
TTITLE14=Bebo Best and The Super Lounge Orchestra - d'Jazzonga
EXTD=YEAR: 2009
EXTT0=
EXTT1=
EXTT2=
EXTT3=
EXTT4=
EXTT5=
EXTT6=
EXTT7=
EXTT8=
EXTT9=
EXTT10=
EXTT11=
EXTT12=
EXTT13=
EXTT14=
PLAYORDER=
